# xmcd
#
# Track frame offsets: 
#        150
#        14339
#        27188
#        39274
#        54678
#        68522
#        81231
#        94130
#        107188
#        120893
#        133867
#        145116
#        158405
#        171647
#
# Disc length: 2481 seconds
#
# Revision: 2
# Processed by: cddbd v1.5.2PL0 Copyright (c) Steve Scherf et al.
# Submitted via: ExactAudioCopy v0.95b4
#
DISCID=b209af0e
DTITLE=Muddy Waters - Chicago Blues
DYEAR=1900
DGENRE=
TTITLE0=Rollin Stone
TTITLE1=Louisiana Blues
TTITLE2=Long Distance Call
TTITLE3=Honey Bee
TTITLE4=I Want You To Love Me
TTITLE5=I Just Want To Make Love To You
TTITLE6=I'm Your Hootchie Cootchie Man
TTITLE7=Mannish Boy
TTITLE8=I'm Ready
TTITLE9=Forty Days and Forty Nights
TTITLE10=She's Allright
TTITLE11=Walking Blues
TTITLE12=She Moves Me
TTITLE13=Still A Fool
EXTD=
EXTT0=
EXTT1=
EXTT2=
EXTT3=
EXTT4=
EXTT5=
EXTT6=
EXTT7=
EXTT8=
EXTT9=
EXTT10=
EXTT11=
EXTT12=
EXTT13=
PLAYORDER=
